# Blender v2.78 (sub 0) OBJ File: 'oblong.blend'
# www.blender.org
mtllib oblong.mtl
o Cube
v 0.439659 -1.013754 -0.136040
v 0.521283 -1.182670 0.368825
v -0.063556 -0.925949 0.286442
v -0.112702 -0.826759 -0.206014
v -0.160063 1.589116 -0.597564
v -0.534417 1.379326 -0.581487
v -0.680252 1.792028 -0.278531
v -0.273419 1.932092 -0.282200
v 0.602400 -0.317008 -0.234978
v 0.283522 0.939358 -0.468147
v 0.274198 1.026699 -0.073226
v 0.653069 -0.387172 0.218250
v 0.313058 -0.309673 0.484641
v -0.071689 1.144043 0.157355
v -0.576678 1.219769 0.117277
v -0.246703 -0.111859 0.418086
v -0.611173 -0.020556 0.077469
v -0.812038 0.996530 -0.127957
v -0.697158 0.682580 -0.482549
v -0.556287 -0.177001 -0.335431
v 0.048163 0.716120 -0.713381
v 0.237929 -0.225705 -0.575595
v -0.216275 -0.254500 -0.601822
v -0.351271 0.565236 -0.713131
v 0.529003 -1.214904 0.140428
v 0.259159 -1.171123 0.370447
v -0.092428 -0.953147 0.053506
v 0.177417 -0.996928 -0.176513
v -0.358787 1.551815 -0.614118
v -0.638750 1.664217 -0.445770
v -0.509521 1.987951 -0.293100
v -0.229558 1.875549 -0.461448
v 0.479898 0.315534 -0.365719
v 0.301443 1.042433 -0.280168
v 0.508330 0.311411 0.092312
v 0.686785 -0.415488 0.006760
v 0.140884 0.415790 0.358547
v -0.345966 1.259215 0.154416
v -0.437355 0.576097 0.298883
v 0.049495 -0.267327 0.503015
v -0.758693 0.505417 -0.014965
v -0.796533 0.864801 -0.312102
v -0.661269 0.239353 -0.424912
v -0.623429 -0.120030 -0.127775
v 0.158561 0.244854 -0.679568
v 0.013861 -0.268191 -0.624029
v -0.293823 0.134973 -0.691147
v -0.149123 0.648019 -0.746686
v 0.604496 -0.809645 -0.137795
v 0.670144 -0.931161 0.308964
v 0.320289 -0.657820 -0.396180
v -0.146583 -0.582104 -0.441372
v 0.439564 -0.213243 -0.448563
v 0.204431 0.802309 -0.618705
v 0.441101 -0.889957 0.499960
v -0.092758 -0.670431 0.429175
v 0.521683 -0.321940 0.383031
v 0.162813 1.018466 0.092630
v -0.376966 -0.518606 0.170789
v -0.375626 -0.540900 -0.250376
v -0.494078 0.016981 0.264641
v -0.739983 1.105582 0.028850
v -0.417864 -0.214236 -0.506461
v -0.540031 0.549511 -0.621992
v 0.055969 1.411530 -0.544637
v -0.002120 1.614869 -0.218139
v -0.066850 1.170178 -0.683793
v -0.420756 0.994087 -0.674376
v -0.238508 1.705878 -0.071904
v -0.659401 1.673598 -0.088079
v -0.782220 1.432246 -0.227235
v -0.657144 1.085098 -0.528141
v 0.241787 -1.186815 0.116797
v -0.457653 1.872672 -0.473439
v 0.537482 0.311350 -0.133706
v -0.151139 0.506966 0.365239
v -0.753348 0.374507 -0.222936
v -0.064728 0.178892 -0.721881
v 0.700308 -0.977701 0.108911
v 0.092593 -0.668405 -0.444962
v 0.349088 0.301017 -0.561687
v 0.203679 -0.885934 0.520499
v 0.380209 0.338596 0.270380
v -0.404035 -0.576639 -0.033375
v -0.659346 0.587481 0.168981
v -0.501684 0.144620 -0.590959
v 0.028989 1.617314 -0.400218
v -0.245189 1.114042 -0.707684
v -0.482817 1.812012 -0.081137
v -0.756995 1.308741 -0.388603
v 0.464156 -0.574041 -0.331504
v 0.560478 -0.743635 0.410678
v -0.325975 -0.403318 0.297381
v -0.319448 -0.454522 -0.405508
v 0.066953 1.143497 -0.623272
v -0.026706 1.472669 -0.065731
v -0.739717 1.426375 -0.095183
v -0.543209 0.876405 -0.613430
vn 0.0991 0.1932 0.9761
vn 0.0869 0.0454 0.9952
vn 0.4404 0.0990 0.8923
vn 0.4045 0.2490 0.8800
vn 0.1139 0.2953 0.9486
vn 0.4200 0.3535 0.8358
vn 0.4730 0.4496 0.7577
vn 0.1643 0.4141 0.8953
vn -0.1926 0.2276 0.9545
vn -0.2091 0.3712 0.9047
vn -0.6038 0.2879 0.7433
vn -0.4953 0.1349 0.8582
vn -0.1982 0.1137 0.9735
vn -0.5266 0.0014 0.8501
vn -0.6137 -0.1538 0.7744
vn -0.3067 -0.0657 0.9495
vn 0.0834 0.1955 0.9772
vn 0.0770 0.0473 0.9959
vn 0.4866 0.1302 0.8639
vn 0.4364 0.2413 0.8668
vn 0.1138 0.2953 0.9486
vn 0.4216 0.3532 0.8352
vn 0.4554 0.4565 0.7643
vn 0.1479 0.4185 0.8961
vn -0.1680 0.2254 0.9597
vn -0.2831 0.3158 0.9056
vn -0.6746 0.1987 0.7109
vn -0.5449 0.1389 0.8269
vn -0.2169 0.1163 0.9692
vn -0.5051 -0.0016 0.8631
vn -0.5821 -0.1709 0.7949
vn -0.3308 -0.0558 0.9420
vn -0.9613 -0.2209 0.1645
vn -0.8956 -0.3769 0.2362
vn -0.7899 -0.2732 0.5490
vn -0.8421 -0.1449 0.5195
vn -0.9940 -0.1092 -0.0055
vn -0.9020 -0.0238 0.4310
vn -0.9414 0.1348 0.3090
vn -0.9893 0.0657 -0.1303
vn -0.9152 -0.1487 -0.3746
vn -0.8516 0.0253 -0.5236
vn -0.6574 0.0133 -0.7535
vn -0.7231 -0.1463 -0.6751
vn -0.9326 -0.2832 -0.2238
vn -0.7707 -0.3110 -0.5561
vn -0.7097 -0.4741 -0.5210
vn -0.8704 -0.4679 -0.1531
vn -0.9603 -0.2464 0.1304
vn -0.8952 -0.3831 0.2276
vn -0.7862 -0.2651 0.5582
vn -0.8249 -0.1475 0.5457
vn -0.9962 -0.0829 0.0266
vn -0.8821 0.0125 0.4708
vn -0.9323 0.1311 0.3372
vn -0.9842 0.0275 -0.1749
vn -0.9312 -0.1202 -0.3441
vn -0.8296 -0.0223 -0.5580
vn -0.6286 -0.0255 -0.7773
vn -0.7493 -0.1209 -0.6511
vn -0.9293 -0.2885 -0.2306
vn -0.7677 -0.3137 -0.5588
vn -0.7241 -0.4973 -0.4778
vn -0.8693 -0.4568 -0.1890
vn 0.1762 -0.0293 -0.9839
vn 0.1041 0.0909 -0.9904
vn 0.4422 0.1664 -0.8813
vn 0.5127 0.0586 -0.8566
vn 0.2323 -0.1723 -0.9573
vn 0.5349 -0.0907 -0.8401
vn 0.5282 -0.2378 -0.8151
vn 0.2609 -0.3510 -0.8993
vn -0.1070 -0.2305 -0.9672
vn -0.1123 -0.4562 -0.8827
vn -0.4503 -0.4963 -0.7423
vn -0.4558 -0.2842 -0.8435
vn -0.1201 -0.0666 -0.9905
vn -0.4248 -0.1091 -0.8987
vn -0.4513 0.0075 -0.8923
vn -0.1867 0.0584 -0.9807
vn 0.1911 -0.0175 -0.9814
vn 0.1288 0.1090 -0.9857
vn 0.4338 0.1676 -0.8853
vn 0.4991 0.0456 -0.8653
vn 0.2385 -0.1674 -0.9566
vn 0.5435 -0.0927 -0.8343
vn 0.5088 -0.2341 -0.8285
vn 0.2121 -0.3400 -0.9162
vn -0.0840 -0.2386 -0.9675
vn -0.1685 -0.4300 -0.8870
vn -0.4953 -0.4648 -0.7339
vn -0.4254 -0.3004 -0.8537
vn -0.1329 -0.0761 -0.9882
vn -0.4358 -0.1039 -0.8941
vn -0.4360 0.0193 -0.8997
vn -0.2114 0.0382 -0.9767
vn 0.0309 -0.8359 -0.5480
vn 0.0898 -0.5679 -0.8182
vn 0.4892 -0.4017 -0.7741
vn 0.6202 -0.5253 -0.5826
vn -0.0427 -0.9895 0.1382
vn 0.8665 -0.4894 0.0984
vn 0.6111 -0.1781 0.7713
vn -0.0125 -0.4117 0.9113
vn -0.6173 -0.7815 0.0906
vn -0.5472 -0.4550 0.7025
vn -0.7244 -0.3974 0.5633
vn -0.8038 -0.5712 0.1663
vn -0.4434 -0.8190 -0.3642
vn -0.7045 -0.6797 -0.2042
vn -0.5696 -0.6094 -0.5515
vn -0.3095 -0.6483 -0.6956
vn -0.0051 0.4282 -0.9037
vn 0.5797 0.5176 -0.6293
vn 0.4349 0.2734 -0.8580
vn 0.0419 0.2104 -0.9767
vn -0.4182 0.2613 -0.8700
vn -0.2799 0.1462 -0.9488
vn -0.5093 0.0568 -0.8587
vn -0.6701 0.1047 -0.7349
vn -0.6650 0.5046 -0.5506
vn -0.9033 0.2020 -0.3785
vn -0.9106 0.2988 0.2855
vn -0.6085 0.5712 0.5508
vn 0.2230 0.8492 -0.4787
vn 0.2686 0.6778 0.6845
vn 0.5745 0.6031 0.5534
vn 0.7616 0.6478 -0.0180
vn 0.9511 0.1424 -0.2740
vn 0.9335 -0.0656 -0.3526
vn 0.7464 -0.1588 -0.6462
vn 0.8023 0.0322 -0.5960
vn 0.9388 0.2580 -0.2283
vn 0.8062 0.1603 -0.5695
vn 0.6996 0.2274 -0.6774
vn 0.8796 0.3768 -0.2905
vn 0.9321 0.3306 0.1479
vn 0.8801 0.4504 0.1501
vn 0.7188 0.4764 0.5063
vn 0.7795 0.3718 0.5041
vn 0.9669 0.2227 0.1243
vn 0.8024 0.2628 0.5358
vn 0.7820 0.1263 0.6103
vn 0.9871 0.0560 0.1499
vn -0.0317 -0.8131 -0.5813
vn 0.1953 -0.5898 -0.7835
vn 0.5375 -0.3210 -0.7798
vn 0.6254 -0.5102 -0.5904
vn -0.1027 -0.9924 0.0684
vn 0.8008 -0.5454 0.2476
vn 0.6347 -0.0472 0.7713
vn 0.0692 -0.4539 0.8883
vn -0.5859 -0.7933 0.1653
vn -0.5399 -0.4718 0.6971
vn -0.7255 -0.3376 0.5997
vn -0.7718 -0.5773 0.2664
vn -0.4715 -0.7839 -0.4040
vn -0.7132 -0.6505 -0.2611
vn -0.5674 -0.6148 -0.5478
vn -0.2585 -0.6881 -0.6781
vn 0.0426 0.4122 -0.9101
vn 0.6092 0.4561 -0.6487
vn 0.4410 0.2693 -0.8562
vn 0.0600 0.2235 -0.9729
vn -0.4226 0.2516 -0.8707
vn -0.2984 0.1248 -0.9462
vn -0.5028 0.0773 -0.8609
vn -0.6742 0.1501 -0.7231
vn -0.6581 0.5341 -0.5307
vn -0.9095 0.2490 -0.3328
vn -0.9083 0.2863 0.3051
vn -0.5518 0.6798 0.4831
vn 0.0037 0.9539 -0.3000
vn 0.1535 0.7698 0.6196
vn 0.5827 0.5452 0.6027
vn 0.6858 0.7167 0.1268
vn 0.9619 0.1375 -0.2363
vn 0.9194 -0.0488 -0.3903
vn 0.7200 -0.1314 -0.6814
vn 0.8307 0.0238 -0.5562
vn 0.9386 0.2569 -0.2303
vn 0.8135 0.1715 -0.5557
vn 0.7199 0.2816 -0.6345
vn 0.8777 0.3470 -0.3304
vn 0.9349 0.3339 0.1205
vn 0.8795 0.4495 0.1563
vn 0.6995 0.4628 0.5446
vn 0.7588 0.3808 0.5285
vn 0.9669 0.2227 0.1247
vn 0.8017 0.2632 0.5366
vn 0.7981 0.1122 0.5919
vn 0.9893 0.0488 0.1378
usemtl Material02
s off
f 37//1 40//1 13//1
f 13//2 82//2 55//2
f 13//3 92//3 57//3
f 13//4 83//4 37//4
f 14//5 76//5 37//5
f 37//6 58//6 14//6
f 14//7 96//7 69//7
f 69//8 38//8 14//8
f 39//9 38//9 15//9
f 38//10 70//10 15//10
f 15//11 97//11 62//11
f 15//12 85//12 39//12
f 16//13 76//13 39//13
f 39//14 61//14 16//14
f 16//15 93//15 56//15
f 56//16 40//16 16//16
f 37//17 76//17 40//17
f 13//18 40//18 82//18
f 13//19 55//19 92//19
f 13//20 57//20 83//20
f 14//21 38//21 76//21
f 37//22 83//22 58//22
f 14//23 58//23 96//23
f 69//24 89//24 38//24
f 39//25 76//25 38//25
f 38//26 89//26 70//26
f 15//27 70//27 97//27
f 15//28 62//28 85//28
f 16//29 40//29 76//29
f 39//30 85//30 61//30
f 16//31 61//31 93//31
f 56//32 82//32 40//32
usemtl Material03
f 17//33 77//33 44//33
f 44//34 59//34 17//34
f 17//35 93//35 61//35
f 17//36 85//36 41//36
f 42//37 41//37 18//37
f 18//38 85//38 62//38
f 18//39 97//39 71//39
f 18//40 90//40 42//40
f 19//41 77//41 42//41
f 42//42 72//42 19//42
f 19//43 98//43 64//43
f 64//44 43//44 19//44
f 44//45 43//45 20//45
f 20//46 86//46 63//46
f 20//47 94//47 60//47
f 60//48 44//48 20//48
f 17//49 41//49 77//49
f 44//50 84//50 59//50
f 17//51 59//51 93//51
f 17//52 61//52 85//52
f 42//53 77//53 41//53
f 18//54 41//54 85//54
f 18//55 62//55 97//55
f 18//56 71//56 90//56
f 19//57 43//57 77//57
f 42//58 90//58 72//58
f 19//59 72//59 98//59
f 64//60 86//60 43//60
f 44//61 77//61 43//61
f 20//62 43//62 86//62
f 20//63 63//63 94//63
f 60//64 84//64 44//64
usemtl Material04
f 45//65 48//65 21//65
f 21//66 88//66 67//66
f 21//67 95//67 54//67
f 21//68 81//68 45//68
f 22//69 78//69 45//69
f 22//70 81//70 53//70
f 53//71 51//71 22//71
f 22//72 80//72 46//72
f 23//73 78//73 46//73
f 46//74 52//74 23//74
f 23//75 94//75 63//75
f 63//76 47//76 23//76
f 24//77 78//77 47//77
f 24//78 86//78 64//78
f 24//79 98//79 68//79
f 68//80 48//80 24//80
f 45//81 78//81 48//81
f 21//82 48//82 88//82
f 21//83 67//83 95//83
f 21//84 54//84 81//84
f 22//85 46//85 78//85
f 22//86 45//86 81//86
f 53//87 91//87 51//87
f 22//88 51//88 80//88
f 23//89 47//89 78//89
f 46//90 80//90 52//90
f 23//91 52//91 94//91
f 63//92 86//92 47//92
f 24//93 48//93 78//93
f 24//94 47//94 86//94
f 24//95 64//95 98//95
f 68//96 88//96 48//96
usemtl Material05
f 1//97 73//97 28//97
f 28//98 51//98 1//98
f 51//99 49//99 1//99
f 1//100 79//100 25//100
f 26//101 25//101 2//101
f 25//102 50//102 2//102
f 50//103 55//103 2//103
f 55//104 26//104 2//104
f 3//105 73//105 26//105
f 3//106 82//106 56//106
f 56//107 59//107 3//107
f 59//108 27//108 3//108
f 28//109 27//109 4//109
f 4//110 84//110 60//110
f 60//111 52//111 4//111
f 4//112 80//112 28//112
f 29//113 32//113 5//113
f 5//114 87//114 65//114
f 65//115 67//115 5//115
f 67//116 29//116 5//116
f 30//117 29//117 6//117
f 6//118 88//118 68//118
f 68//119 72//119 6//119
f 6//120 90//120 30//120
f 7//121 74//121 30//121
f 30//122 71//122 7//122
f 71//123 70//123 7//123
f 7//124 89//124 31//124
f 8//125 74//125 31//125
f 8//126 89//126 69//126
f 69//127 66//127 8//127
f 66//128 32//128 8//128
f 9//129 75//129 36//129
f 36//130 49//130 9//130
f 9//131 91//131 53//131
f 53//132 33//132 9//132
f 10//133 75//133 33//133
f 33//134 54//134 10//134
f 10//135 95//135 65//135
f 65//136 34//136 10//136
f 11//137 75//137 34//137
f 34//138 66//138 11//138
f 11//139 96//139 58//139
f 11//140 83//140 35//140
f 36//141 35//141 12//141
f 35//142 57//142 12//142
f 12//143 92//143 50//143
f 50//144 36//144 12//144
f 1//145 25//145 73//145
f 28//146 80//146 51//146
f 51//147 91//147 49//147
f 1//148 49//148 79//148
f 26//149 73//149 25//149
f 25//150 79//150 50//150
f 50//151 92//151 55//151
f 55//152 82//152 26//152
f 3//153 27//153 73//153
f 3//154 26//154 82//154
f 56//155 93//155 59//155
f 59//156 84//156 27//156
f 28//157 73//157 27//157
f 4//158 27//158 84//158
f 60//159 94//159 52//159
f 4//160 52//160 80//160
f 29//161 74//161 32//161
f 5//162 32//162 87//162
f 65//163 95//163 67//163
f 67//164 88//164 29//164
f 30//165 74//165 29//165
f 6//166 29//166 88//166
f 68//167 98//167 72//167
f 6//168 72//168 90//168
f 7//169 31//169 74//169
f 30//170 90//170 71//170
f 71//171 97//171 70//171
f 7//172 70//172 89//172
f 8//173 32//173 74//173
f 8//174 31//174 89//174
f 69//175 96//175 66//175
f 66//176 87//176 32//176
f 9//177 33//177 75//177
f 36//178 79//178 49//178
f 9//179 49//179 91//179
f 53//180 81//180 33//180
f 10//181 34//181 75//181
f 33//182 81//182 54//182
f 10//183 54//183 95//183
f 65//184 87//184 34//184
f 11//185 35//185 75//185
f 34//186 87//186 66//186
f 11//187 66//187 96//187
f 11//188 58//188 83//188
f 36//189 75//189 35//189
f 35//190 83//190 57//190
f 12//191 57//191 92//191
f 50//192 79//192 36//192
