<svg xmlns="http://www.w3.org/2000/svg" xmlns:xlink="http://www.w3.org/1999/xlink" version="1.1" x="0px" y="0px" viewBox="0 0 100 125" enable-background="new 0 0 100 100" xml:space="preserve"><path fill="#000000" d="M87.3,37.3c-1.1-7-7.1-12.3-14.4-12.3c-4,0-7.6,1.6-10.2,4.2H37.3c-2.6-2.6-6.2-4.2-10.2-4.2  c-7.3,0-13.3,5.4-14.4,12.3c-0.5,2.4-4.4,28-4.4,29.3c0,4.6,3.7,8.3,8.3,8.3c3.1,0,5.7-1.7,7.2-4.1c1.3-1.8,6.2-9.3,7.5-11.2  c1.5,1.7,3.7,2.9,6.2,2.9c4.6,0,8.3-3.7,8.3-8.3h8.3c0,4.6,3.7,8.3,8.3,8.3c2.5,0,4.7-1.1,6.2-2.9c1.2,1.9,6.1,9.5,7.5,11.2  c1.5,2.5,4.1,4.1,7.2,4.1c4.6,0,8.3-3.7,8.3-8.3C91.7,66.1,87.8,39.5,87.3,37.3C86.2,30.4,87.8,39.5,87.3,37.3z M29.2,41.7v4.2H25  v-4.2h-4.2v-4.2H25v-4.2h4.2v4.2h4.2v4.2H29.2z M37.5,58.3c-2.3,0-4.2-1.9-4.2-4.2c0-2.3,1.9-4.2,4.2-4.2s4.2,1.9,4.2,4.2  C41.7,56.5,39.8,58.3,37.5,58.3z M72.9,30.2c1.7,0,3.1,1.4,3.1,3.1c0,1.7-1.4,3.1-3.1,3.1s-3.1-1.4-3.1-3.1  C69.8,31.6,71.2,30.2,72.9,30.2z M62.5,58.3c-2.3,0-4.2-1.9-4.2-4.2c0-2.3,1.9-4.2,4.2-4.2s4.2,1.9,4.2,4.2  C66.7,56.5,64.8,58.3,62.5,58.3z M66.7,42.7c-1.7,0-3.1-1.4-3.1-3.1c0-1.7,1.4-3.1,3.1-3.1s3.1,1.4,3.1,3.1  C69.8,41.3,68.4,42.7,66.7,42.7z M72.9,49c-1.7,0-3.1-1.4-3.1-3.1c0-1.7,1.4-3.1,3.1-3.1s3.1,1.4,3.1,3.1C76,47.6,74.6,49,72.9,49z   M79.2,42.7c-1.7,0-3.1-1.4-3.1-3.1c0-1.7,1.4-3.1,3.1-3.1s3.1,1.4,3.1,3.1C82.3,41.3,80.9,42.7,79.2,42.7z"/></svg>