<?xml version="1.0" encoding="utf-8"?>
<!-- Generator: Adobe Illustrator 21.0.2, SVG Export Plug-In . SVG Version: 6.00 Build 0)  -->
<svg version="1.1" id="Layer_1" xmlns="http://www.w3.org/2000/svg" xmlns:xlink="http://www.w3.org/1999/xlink" x="0px" y="0px"
	 viewBox="0 0 90 112.5" style="enable-background:new 0 0 90 112.5;" xml:space="preserve">
<style type="text/css">
	.st0{fill:#282827;}
	.st1{fill:none;stroke:#FFFFFF;stroke-width:7;stroke-miterlimit:10;}
	.st2{fill:#282827;stroke:#A0A0A0;stroke-width:2;stroke-miterlimit:10;}
	.st3{fill:none;stroke:#A0A0A0;stroke-width:2;stroke-miterlimit:10;}
	.st4{fill:#FFFFFF;}
	.st5{fill:none;stroke:#FFFFFF;stroke-width:2;stroke-miterlimit:10;}
</style>
<polygon class="st0" points="16,41.9 16,38.7 20,31.4 25.3,25 30.3,21.3 35.6,18.5 35.6,30.9 31.7,33.4 28.6,36.1 28.7,38.9 "/>
<polygon class="st0" points="76,42.9 76,39.4 71.9,31.7 66.5,24.9 61.4,21 56,18 56,31.1 59.9,33.8 62.8,35.5 63.1,37.2 63.4,39.5 
	"/>
<image style="overflow:visible;" width="1920" height="1200" xlink:href="CAC61DB7.jpg"  transform="matrix(1 0 0 1 -4977 -4766)">
</image>
<image style="overflow:visible;" width="1920" height="1200" xlink:href="CAC61DB5.jpg"  transform="matrix(1 0 0 1 3146.094 3679.6035)">
</image>
<path class="st0" d="M3361.8,3629.1h-322.5c-50.7,0-92.2-41.5-92.2-92.2v-133.5c0-47.4,38.8-86.2,86.2-86.2h328.5
	c50.7,0,92.2,41.5,92.2,92.2v127.5C3454.1,3587.6,3412.6,3629.1,3361.8,3629.1z"/>
<path class="st0" d="M3243.6,3327.1h-85.5c-6.6,0-12-5.4-12-12v-139.5c0-6.6,5.4-12,12-12h85.5c6.6,0,12,5.4,12,12v139.5
	C3255.6,3321.7,3250.2,3327.1,3243.6,3327.1z"/>
<circle class="st1" cx="3046.8" cy="3383.5" r="32.5"/>
<circle class="st1" cx="3363.6" cy="3383.5" r="32.5"/>
<circle class="st1" cx="3200.8" cy="3575.8" r="32.5"/>
<circle class="st1" cx="3014.3" cy="3490.4" r="32.5"/>
<circle class="st1" cx="3390.6" cy="3490.4" r="32.5"/>
<circle class="st1" cx="3200.8" cy="3576.8" r="17.6"/>
<polyline class="st1" points="3310.8,3314.1 3278.7,3356.3 3251.3,3376.3 3204,3376.3 3146.1,3376.3 3121.3,3359.7 3089.1,3317.1 
	"/>
<polygon class="st0" points="3004.5,3339.1 3004.5,3321.1 3031,3280.1 3066,3244.5 3099.5,3223.6 3134.5,3208.1 3134.5,3277.1 
	3109,3291.1 3090.4,3306.9 3088.5,3322 "/>
<polygon class="st0" points="3394,3336.1 3394,3318.1 3367.5,3277.1 3332.5,3241.5 3299,3220.6 3264,3205.1 3264,3274.1 
	3289.5,3288.1 3310,3306.5 3312.3,3318.4 "/>
<line class="st1" x1="3200.8" y1="3376.3" x2="3200.8" y2="3543.3"/>
<path class="st2" d="M68,88.5H22C10.3,88.5,0.8,79,0.8,67.3V56c0-10.7,8.8-19.5,19.5-19.5H68c11.7,0,21.2,9.5,21.2,21.2v9.6
	C89.3,79,79.7,88.5,68,88.5z"/>
<path class="st0" d="M45.5,38.5L45.5,38.5c-4.7,0-8.5-3.8-8.5-8.5V20c0-4.7,3.8-8.5,8.5-8.5h0.1c4.7,0,8.5,3.8,8.5,8.5V30
	C54,34.7,50.2,38.5,45.5,38.5z"/>
<ellipse transform="matrix(0.9228 -0.3853 0.3853 0.9228 -17.8119 10.9322)" class="st3" cx="18.4" cy="49.9" rx="3.9" ry="5.5"/>
<ellipse transform="matrix(0.3655 -0.9308 0.9308 0.3655 -0.233 98.6581)" class="st3" cx="72.3" cy="49.5" rx="5.5" ry="4.3"/>
<ellipse class="st3" cx="11.5" cy="65.3" rx="5" ry="4.3"/>
<ellipse class="st3" cx="78.5" cy="65.3" rx="5" ry="4.3"/>
<circle class="st4" cx="45.5" cy="80" r="1.5"/>
<polyline class="st3" points="63.8,37.2 58.6,43.5 54.1,46.5 46.4,46.5 36.9,46.5 32.9,44 27.6,37.6 "/>
<line class="st3" x1="45.5" y1="46.5" x2="45.5" y2="74.5"/>
<ellipse transform="matrix(0.5773 -0.8166 0.8166 0.5773 -37.2175 87.6052)" class="st3" cx="66" cy="79.7" rx="3.9" ry="5"/>
<ellipse transform="matrix(0.7071 -0.7071 0.7071 0.7071 -49.6904 39.531)" class="st3" cx="22.9" cy="79.7" rx="5" ry="3.9"/>
<ellipse class="st5" cx="45.5" cy="80" rx="5" ry="5.5"/>
</svg>
