<?xml version="1.0" encoding="utf-8"?>
<!-- Generator: Adobe Illustrator 21.0.0, SVG Export Plug-In . SVG Version: 6.00 Build 0)  -->
<svg version="1.1" id="Layer_1" xmlns="http://www.w3.org/2000/svg" xmlns:xlink="http://www.w3.org/1999/xlink" x="0px" y="0px"
	 viewBox="0 0 100 125" style="enable-background:new 0 0 100 125;" xml:space="preserve">
<style type="text/css">
	.st0{fill:#FFFFFF;stroke:#000000;stroke-width:2;stroke-miterlimit:10;}
</style>
<g>
	<g>
		<path class="st0" d="M77.5,85H62.1c-1.5,0-2.7-1.3-2.7-2.9c0-1.6,1.2-2.9,2.7-2.9h12.6V65.7c0-1.6,1.2-2.9,2.7-2.9
			s2.7,1.3,2.7,2.9v16.4C80.2,83.7,79,85,77.5,85z"/>
	</g>
	<g>
		<path class="st0" d="M38.6,85H23.2c-1.5,0-2.7-1.3-2.7-2.9V65.7c0-1.6,1.2-2.9,2.7-2.9s2.7,1.3,2.7,2.9v13.5h12.6
			c1.5,0,2.7,1.3,2.7,2.9C41.3,83.7,40.1,85,38.6,85z"/>
	</g>
</g>
<g>
	<g>
		<path class="st0" d="M23.2,43.4c-1.5,0-2.7-1.3-2.7-2.9V24.1c0-1.6,1.2-2.9,2.7-2.9h15.4c1.5,0,2.7,1.3,2.7,2.9
			c0,1.6-1.2,2.9-2.7,2.9H25.9v13.5C25.9,42.1,24.7,43.4,23.2,43.4z"/>
	</g>
	<g>
		<path class="st0" d="M77.5,43.4c-1.5,0-2.7-1.3-2.7-2.9V27H62.1c-1.5,0-2.7-1.3-2.7-2.9c0-1.6,1.2-2.9,2.7-2.9h15.4
			c1.5,0,2.7,1.3,2.7,2.9v16.4C80.2,42.1,79,43.4,77.5,43.4z"/>
	</g>
</g>
<g>
	<path class="st0" d="M92.6,101.2H8c-1.5,0-2.7-1.3-2.7-2.9V7.9C5.3,6.3,6.5,5,8,5h84.6c1.5,0,2.7,1.3,2.7,2.9v90.4
		C95.3,99.9,94.1,101.2,92.6,101.2z M10.8,95.4h79.1V10.8H10.8V95.4z"/>
</g>
</svg>
