<?xml version="1.0" encoding="utf-8"?>
<!-- Generator: Adobe Illustrator 21.0.2, SVG Export Plug-In . SVG Version: 6.00 Build 0)  -->
<svg version="1.1" id="Layer_1" xmlns="http://www.w3.org/2000/svg" xmlns:xlink="http://www.w3.org/1999/xlink" x="0px" y="0px"
	 viewBox="0 0 90 112.5" style="enable-background:new 0 0 90 112.5;" xml:space="preserve">
<style type="text/css">
	.st0{stroke:#FFFFFF;stroke-miterlimit:10;}
</style>
<g id="Layer_2">
</g>
<g id="Layer_1_1_">
	<path class="st0" d="M85.7,26.2c-2.3-2.3-79.6-1.8-81.4,0c-1.9,1.9-1.9,50.5,0,52.4c0.7,0.7,13.4,1,28.5,1.1l3.4-9.3
		c0,0,2.2-8.8,8.7-8.8c6.9,0,9.9,10.7,9.9,10.7l2.9,7.5c14.9-0.1,27.4-0.5,28-1.1C87.3,76.9,87.9,28.4,85.7,26.2z M23,62.8
		c-6.7,0-12.1-5.4-12.1-12.1S16.3,38.6,23,38.6S35.1,44,35.1,50.7C35.1,57.4,29.6,62.8,23,62.8z M66.6,62.8
		c-6.7,0-12.1-5.4-12.1-12.1s5.4-12.1,12.1-12.1S78.7,44,78.7,50.7C78.7,57.4,73.3,62.8,66.6,62.8z"/>
</g>
</svg>
