<?xml version="1.0" encoding="utf-8"?>
<!-- Generator: Adobe Illustrator 21.0.2, SVG Export Plug-In . SVG Version: 6.00 Build 0)  -->
<svg version="1.1" id="Layer_1" xmlns="http://www.w3.org/2000/svg" xmlns:xlink="http://www.w3.org/1999/xlink" x="0px" y="0px"
	 viewBox="0 0 100 125" style="enable-background:new 0 0 100 125;" xml:space="preserve">
<style type="text/css">
	.st0{fill:#282828;}
	.st1{fill:#A0A0A0;}
</style>
<polygon class="st0" points="49.6,3.8 57.2,4.6 65.5,7.3 71.7,11.2 84.2,24 85,26.4 85,29.6 84,31.5 79.7,35 77.2,35 71.8,30.6 
	68.8,32.6 67.3,35 65.8,37.7 65,43 61.5,109.6 60.9,113.6 59.6,116.6 57.2,119.3 54.3,121.1 50.7,121.8 46.6,121.1 43.5,119.3 
	41.4,116.8 40.2,113.2 36,41.8 34.7,36.8 33.2,32.9 29.3,30.5 24.3,34.7 21.8,34.6 16.8,30.9 16,27.3 17.3,24.6 29.5,11.2 37.3,6.8 
	43,4.8 "/>
<ellipse class="st1" cx="50.5" cy="53.3" rx="10.2" ry="8.9"/>
<ellipse class="st1" cx="50.9" cy="17.5" rx="17.6" ry="8.2"/>
</svg>
