<?xml version="1.0" encoding="utf-8"?>
<!-- Generator: Adobe Illustrator 21.0.0, SVG Export Plug-In . SVG Version: 6.00 Build 0)  -->
<svg version="1.1" id="Layer_1" xmlns="http://www.w3.org/2000/svg" xmlns:xlink="http://www.w3.org/1999/xlink" x="0px" y="0px"
	 viewBox="0 0 100 125" style="enable-background:new 0 0 100 125;" xml:space="preserve">
<style type="text/css">
	.st0{fill:#606060;}
	.st1{fill:#606060;stroke:#FFFFFF;stroke-width:2;stroke-miterlimit:10;}
	.st2{fill:none;stroke:#FF7373;stroke-width:3;stroke-miterlimit:10;}
</style>
<rect x="9.3" y="23.6" class="st0" width="80.8" height="65.3"/>
<polygon class="st1" points="97.8,43.6 97.8,12.1 73.8,12.1 73.8,22.2 84.6,22.2 70.2,41 29.3,41 14.9,22.2 25.8,22.2 25.8,12.1 
	1.8,12.1 1.8,43.6 9.4,43.6 9.4,29.3 23.8,48.1 23.8,64.1 9.4,83 9.4,68.7 1.8,68.7 1.8,100.1 25.8,100.1 25.8,90.1 14.9,90.1 
	29.3,71.2 70.2,71.2 84.6,90.1 73.8,90.1 73.8,100.1 97.8,100.1 97.8,68.7 90.1,68.7 90.1,83 75.7,64.1 75.7,48.1 90.1,29.3 
	90.1,43.6 "/>
<line class="st2" x1="97.8" y1="3.2" x2="2.8" y2="109.2"/>
</svg>
