<?xml version="1.0" encoding="utf-8"?>
<!-- Generator: Adobe Illustrator 21.0.2, SVG Export Plug-In . SVG Version: 6.00 Build 0)  -->
<svg version="1.1" id="Layer_1" xmlns="http://www.w3.org/2000/svg" xmlns:xlink="http://www.w3.org/1999/xlink" x="0px" y="0px"
	 viewBox="0 0 90 112.5" style="enable-background:new 0 0 90 112.5;" xml:space="preserve">
<style type="text/css">
	.st0{fill:#282827;}
	.st1{fill:none;stroke:#FFFFFF;stroke-width:7;stroke-miterlimit:10;}
	.st2{fill:#282827;stroke:#A0A0A0;stroke-width:2;stroke-miterlimit:10;}
	.st3{fill:#FFFFFF;}
</style>
<polygon class="st0" points="16,33.9 16,30.7 20,23.4 25.3,17 30.3,13.3 35.6,10.5 35.6,22.9 31.7,25.4 28.6,28.1 28.7,30.9 "/>
<polygon class="st0" points="76,34.9 76,31.4 71.9,23.7 66.5,16.9 61.4,13 56,10 56,23.1 59.9,25.8 62.8,27.5 63.1,29.2 63.4,31.5 
	"/>
<image style="overflow:visible;enable-background:new    ;" width="1920" height="1201" xlink:href="CAC61DB7.jpg"  transform="matrix(0.9998 0 0 0.9998 -4976.7754 -4766.3594)">
</image>
<image style="overflow:visible;enable-background:new    ;" width="1921" height="1201" xlink:href="CAC61DB5.jpg"  transform="matrix(0.9994 0 0 0.9994 3146.1782 3679.4688)">
</image>
<path class="st0" d="M3361.8,3629.1h-322.5c-50.7,0-92.2-41.5-92.2-92.2v-133.5c0-47.4,38.8-86.2,86.2-86.2h328.5
	c50.7,0,92.2,41.5,92.2,92.2v127.5C3454.1,3587.6,3412.6,3629.1,3361.8,3629.1z"/>
<path class="st0" d="M3243.6,3327.1h-85.5c-6.6,0-12-5.4-12-12v-139.5c0-6.6,5.4-12,12-12h85.5c6.6,0,12,5.4,12,12v139.5
	C3255.6,3321.7,3250.2,3327.1,3243.6,3327.1z"/>
<circle class="st1" cx="3046.8" cy="3383.5" r="32.5"/>
<circle class="st1" cx="3363.6" cy="3383.5" r="32.5"/>
<circle class="st1" cx="3200.8" cy="3575.8" r="32.5"/>
<circle class="st1" cx="3014.3" cy="3490.4" r="32.5"/>
<circle class="st1" cx="3390.6" cy="3490.4" r="32.5"/>
<circle class="st1" cx="3200.8" cy="3576.8" r="17.6"/>
<polyline class="st1" points="3310.8,3314.1 3278.7,3356.3 3251.3,3376.3 3204,3376.3 3146.1,3376.3 3121.3,3359.7 3089.1,3317.1 
	"/>
<polygon class="st0" points="3004.5,3339.1 3004.5,3321.1 3031,3280.1 3066,3244.5 3099.5,3223.6 3134.5,3208.1 3134.5,3277.1 
	3109,3291.1 3090.4,3306.9 3088.5,3322 "/>
<polygon class="st0" points="3394,3336.1 3394,3318.1 3367.5,3277.1 3332.5,3241.5 3299,3220.6 3264,3205.1 3264,3274.1 
	3289.5,3288.1 3310,3306.5 3312.3,3318.4 "/>
<line class="st1" x1="3200.8" y1="3376.3" x2="3200.8" y2="3543.3"/>
<path class="st2" d="M68,80.5H22C10.3,80.5,0.8,71,0.8,59.3V48c0-10.7,8.8-19.5,19.5-19.5H68c11.7,0,21.2,9.5,21.2,21.2v9.6
	C89.3,71,79.7,80.5,68,80.5z"/>
<circle class="st3" cx="45.5" cy="15.5" r="1.5"/>
<path class="st2" d="M64.7,74H26.1c-9.8,0-17.8-7.1-17.8-15.9v-8.5c0-8,7.4-14.7,16.4-14.7h40c9.8,0,17.8,7.1,17.8,15.9V58
	C82.5,66.9,74.5,74,64.7,74z"/>
<ellipse class="st3" cx="70.7" cy="65.5" rx="1.9" ry="2"/>
</svg>
