<?xml version="1.0" encoding="utf-8"?>
<!-- Generator: Adobe Illustrator 21.0.2, SVG Export Plug-In . SVG Version: 6.00 Build 0)  -->
<svg version="1.1" id="Layer_1" xmlns="http://www.w3.org/2000/svg" xmlns:xlink="http://www.w3.org/1999/xlink" x="0px" y="0px"
	 viewBox="0 0 90 112.5" style="enable-background:new 0 0 90 112.5;" xml:space="preserve">
<style type="text/css">
	.st0{fill:#2D2D2D;}
	.st1{fill:#282827;}
	.st2{fill:none;stroke:#FFFFFF;stroke-width:7;stroke-miterlimit:10;}
	.st3{fill:none;stroke:#A0A0A0;stroke-width:2;stroke-miterlimit:10;}
	.st4{fill:#282827;stroke:#A0A0A0;stroke-width:2;stroke-miterlimit:10;}
</style>
<path class="st0" d="M71.5,76.7l-5.7-2.7c-1.7-0.8-2.5-2.9-1.7-4.7l4.6-9.8c0.8-1.7,2.9-2.5,4.7-1.7l5.7,2.7
	c1.7,0.8,2.5,2.9,1.7,4.7l-4.6,9.8C75.4,76.8,73.3,77.6,71.5,76.7z"/>
<path class="st0" d="M23.4,74.5l-5.7,2.4c-1.8,0.7-3.8-0.1-4.6-1.9L9,65c-0.7-1.8,0.1-3.8,1.9-4.6l5.7-2.4c1.8-0.7,3.8,0.1,4.6,1.9
	l4.1,10C26.1,71.7,25.2,73.8,23.4,74.5z"/>
<image style="overflow:visible;" width="1920" height="1200" xlink:href="CB1A6289.jpg"  transform="matrix(1 0 0 1 -4977 -4766)">
</image>
<image style="overflow:visible;" width="1920" height="1200" xlink:href="CB1A628F.jpg"  transform="matrix(1 0 0 1 3146.094 3679.6035)">
</image>
<path class="st1" d="M3361.8,3629.1h-322.5c-50.7,0-92.2-41.5-92.2-92.2v-133.5c0-47.4,38.8-86.2,86.2-86.2h328.5
	c50.7,0,92.2,41.5,92.2,92.2v127.5C3454.1,3587.6,3412.6,3629.1,3361.8,3629.1z"/>
<path class="st1" d="M3243.6,3327.1h-85.5c-6.6,0-12-5.4-12-12v-139.5c0-6.6,5.4-12,12-12h85.5c6.6,0,12,5.4,12,12v139.5
	C3255.6,3321.7,3250.2,3327.1,3243.6,3327.1z"/>
<circle class="st2" cx="3046.8" cy="3383.5" r="32.5"/>
<circle class="st2" cx="3363.6" cy="3383.5" r="32.5"/>
<circle class="st2" cx="3200.8" cy="3575.8" r="32.5"/>
<circle class="st2" cx="3014.3" cy="3490.4" r="32.5"/>
<circle class="st2" cx="3390.6" cy="3490.4" r="32.5"/>
<circle class="st2" cx="3200.8" cy="3576.8" r="17.6"/>
<polyline class="st2" points="3310.8,3314.1 3278.7,3356.3 3251.3,3376.3 3204,3376.3 3146.1,3376.3 3121.3,3359.7 3089.1,3317.1 
	"/>
<polygon class="st1" points="3004.5,3339.1 3004.5,3321.1 3031,3280.1 3066,3244.5 3099.5,3223.6 3134.5,3208.1 3134.5,3277.1 
	3109,3291.1 3090.4,3306.9 3088.5,3322 "/>
<polygon class="st1" points="3394,3336.1 3394,3318.1 3367.5,3277.1 3332.5,3241.5 3299,3220.6 3264,3205.1 3264,3274.1 
	3289.5,3288.1 3310,3306.5 3312.3,3318.4 "/>
<line class="st2" x1="3200.8" y1="3376.3" x2="3200.8" y2="3543.3"/>
<path class="st1" d="M48.9,32.5h-4.8c-1.7,0-3.1-1.4-3.1-3.1V8.6c0-1.7,1.4-3.1,3.1-3.1h4.8c1.7,0,3.1,1.4,3.1,3.1v20.8
	C52,31.1,50.6,32.5,48.9,32.5z"/>
<line class="st3" x1="52" y1="13.5" x2="41" y2="13.5"/>
<path class="st0" d="M9.2,66.8L9.2,66.8c-1.4,0.2-2.7-0.7-2.9-2L0.9,35.6c-0.2-1.4,0.7-2.7,2-2.9h0c1.4-0.2,2.7,0.7,2.9,2l5.4,29.1
	C11.4,65.2,10.5,66.5,9.2,66.8z"/>
<path class="st0" d="M81.4,67L81.4,67c-1.4-0.2-2.3-1.5-2-2.9l5-29.6c0.2-1.4,1.5-2.3,2.9-2h0c1.4,0.2,2.3,1.5,2,2.9l-5,29.6
	C84.1,66.3,82.8,67.2,81.4,67z"/>
<path class="st4" d="M66.2,70.5H23.8c-7.6,0-13.8-6.2-13.8-13.8V39.6c0-6.6,5.4-12.1,12.1-12.1h44.2c7.6,0,13.8,6.2,13.8,13.8v15.5
	C80,64.3,73.8,70.5,66.2,70.5z"/>
</svg>
