<?xml version="1.0" encoding="utf-8"?>
<!-- Generator: Adobe Illustrator 21.0.2, SVG Export Plug-In . SVG Version: 6.00 Build 0)  -->
<svg version="1.1" id="Layer_1" xmlns="http://www.w3.org/2000/svg" xmlns:xlink="http://www.w3.org/1999/xlink" x="0px" y="0px"
	 viewBox="0 0 100 125" style="enable-background:new 0 0 100 125;" xml:space="preserve">
<style type="text/css">
	.st0{fill:#282828;}
	.st1{fill:#A0A0A0;}
	.st2{fill:#494949;}
</style>
<path class="st0" d="M95.9,46.2l-2.1-8.9l-3.8-6.7l-7.5-6.6l-6.4-3.4l-6.8-2.4L57,16l-9.5-8l-7.2-1.3L30.9,9l-7.5,3.2L12.6,22.7
	l-4,6.3L6,39.9v8.7l1.3,9.2l4.3,11.6l6.6,11l6.4,5.6l23.9,14.6l9.8,1.1l11.1-1.3l8.9-4.5l7-6.3l7.2-10.5L95.9,69l1.1-13.9L95.9,46.2
	z M85,69.3l-2.1,11.6l-6.4,7.7L67,92.8l-13.8-2l-13.6-7.6L27.9,71.5l-3.4-5.2l-2.8-6.7L19,51.8V41.5l2.1-9.2l3.4-7.2l3-1.1h1.3
	l6.4,8.3l5.1,4.9L73,56l10.9,3.6l1.1,1.8V69.3z"/>
<polygon class="st0" points="41.6,25.1 29.9,66.1 25.2,82 22.9,100.4 25.8,110.2 30.1,114.5 35.4,114.5 40.1,113.4 45.4,106.9 
	50.6,94.8 54.1,85.6 58.6,66.1 64.4,58.7 77.2,57.6 87.2,49.1 "/>
<path class="st1" d="M91.6,43.3c-2.4,8.3-15.7,11.5-29.8,7S38.4,35.5,40.7,27.2s15.7-11.5,29.8-7S94,35,91.6,43.3z"/>
<path class="st2" d="M69.2,29.8c-0.6,3.2-5.1,4.9-10,3.9s-8.4-4.5-7.8-7.7s5.1-4.9,10-3.9S69.8,26.6,69.2,29.8z"/>
<path class="st2" d="M62.2,42.1c-0.5,1.4-2.7,1.9-4.9,1c-2.2-0.9-3.6-2.7-3.1-4.2s2.7-1.9,4.9-1S62.7,40.7,62.2,42.1z"/>
<path class="st2" d="M74.3,42.1c-0.5,1.4-2.7,1.9-4.9,1c-2.2-0.9-3.6-2.7-3.1-4.2s2.7-1.9,4.9-1S74.8,40.7,74.3,42.1z"/>
<path class="st2" d="M82,36.8c-0.5,1.4-2.7,1.9-4.9,1c-2.2-0.9-3.6-2.7-3.1-4.2c0.5-1.4,2.7-1.9,4.9-1C81.1,33.6,82.5,35.4,82,36.8z
	"/>
</svg>
