<svg version="1.1" xmlns="http://www.w3.org/2000/svg" xmlns:xlink="http://www.w3.org/1999/xlink" x="0px" y="0px"
	 viewBox="0 0 90 112.5" style="enable-background:new 0 0 90 112.5;" xml:space="preserve"><style type="text/css">.st0{fill:#606060;}.st1{fill:none;stroke:#FF7373;stroke-width:3;stroke-miterlimit:10;}</style><path class="st0" d="M81.7,21.3c-2.1-2.1-72.5-1.6-74.1,0c-1.7,1.7-1.7,46,0,47.7c0.6,0.6,12.2,0.9,26,1l3.1-8.5c0,0,2-8,7.9-8
	c6.3,0,9,9.7,9,9.7l2.6,6.8c13.6-0.1,25-0.5,25.5-1C83.2,67.5,83.7,23.3,81.7,21.3z M24.6,54.6c-6.1,0-11-4.9-11-11
	c0-6.1,4.9-11,11-11s11,4.9,11,11C35.6,49.7,30.6,54.6,24.6,54.6z M64.3,54.6c-6.1,0-11-4.9-11-11c0-6.1,4.9-11,11-11
	c6.1,0,11,4.9,11,11C75.3,49.7,70.4,54.6,64.3,54.6z"/><line class="st1" x1="84" y1="6" x2="19" y2="89"/></svg>
