<?xml version="1.0" encoding="utf-8"?>
<!-- Generator: Adobe Illustrator 21.0.0, SVG Export Plug-In . SVG Version: 6.00 Build 0)  -->
<svg version="1.1" id="Layer_1" xmlns="http://www.w3.org/2000/svg" xmlns:xlink="http://www.w3.org/1999/xlink" x="0px" y="0px"
	 viewBox="0 0 100 125" style="enable-background:new 0 0 100 125;" xml:space="preserve">
<style type="text/css">
	.st0{fill:#FF7373;}
</style>
<path class="st0" d="M48.8,109.9H32.6c0.1,1.4,0.4,2.6,1,3.4c0.8,1.1,1.8,1.6,3,1.6c0.8,0,1.6-0.3,2.2-0.7c0.4-0.3,0.9-0.8,1.3-1.6
	l7.8,0.9c-1.2,2.5-2.7,4.2-4.3,5.3c-1.7,1.1-4.1,1.6-7.3,1.6c-2.8,0-4.9-0.4-6.5-1.3c-1.6-0.9-2.9-2.4-3.9-4.3c-1-2-1.6-4.3-1.6-7.1
	c0-3.8,1-7,3.1-9.3c2.1-2.4,5-3.6,8.6-3.6c3,0,5.3,0.5,7,1.6c1.7,1.1,3,2.6,3.9,4.6c0.9,2,1.3,4.6,1.3,7.9v1.1H48.8z M40.4,105.4
	c-0.1-1.8-0.6-3.2-1.2-3.9c-0.7-0.8-1.6-1.2-2.7-1.2c-1.2,0-2.2,0.7-3,1.8c-0.4,0.8-0.8,1.8-0.9,3.3H40.4z"/>
<path class="st0" d="M51.6,101.8l4.5-0.5l3.7,0.5l3.2,11.1l3.2-11.1l4.3-0.5l3.9,0.5V120h-5L69.1,108L65.3,120h-4.6l-3.5-11.9
	L56.9,120h-5L51.6,101.8L51.6,101.8z"/>
</svg>
