<svg xmlns="http://www.w3.org/2000/svg" xmlns:xlink="http://www.w3.org/1999/xlink" version="1.1" x="0px" y="0px" viewBox="0 0 100 125" enable-background="new 0 0 100 100" xml:space="preserve"><path d="M59.4,5c0.4,3.1,0.9,6.1,1.3,9.1c0,0.3,0,0.5,0.1,0.8c0.3,1,5.3,2.7,6.2,2c2.2-1.6,4.4-3.2,6.5-4.9c0.8-0.7,1.4-0.5,2.1,0  c4.8,3.3,8.8,7.4,12.1,12.2c0.5,0.7,0.5,1.2,0,1.9c-1.7,2.1-3.3,4.4-4.9,6.5c-0.5,0.7-0.7,1.3-0.2,2.1c0.3,0.5,0.6,1,0.7,1.5  c0.4,2.3,1.8,3,3.9,3.1c2.1,0.1,4.2,0.6,6.2,0.8c0.9,0.1,1.2,0.4,1.4,1.2c0.8,4.2,1,8.5,0.6,12.7c-0.1,1.6-0.4,3.3-0.7,4.9  c-0.1,0.4-0.6,0.9-1,1c-2.7,0.5-5.5,0.9-8.2,1.2c-0.9,0.1-1.4,0.4-1.6,1.3c-0.1,0.5-0.3,1.1-0.6,1.6c-1.4,1.9-0.8,3.5,0.7,5.1  c1.4,1.6,2.6,3.3,3.8,5c0.3,0.4,0.3,1.3,0.1,1.7c-3.3,4.9-7.4,9-12.3,12.4c-0.7,0.5-1.2,0.4-1.9-0.1c-2.1-1.7-4.4-3.3-6.5-4.9  c-0.6-0.5-1.2-0.7-1.9-0.2c-0.5,0.3-1.1,0.6-1.7,0.7c-2.3,0.4-2.9,1.9-3,4c-0.1,2.1-0.5,4.3-0.9,6.4c-0.1,0.4-0.6,1-1.1,1.1  c-5.9,1.2-11.7,1.2-17.6,0.1c-0.8-0.1-1.1-0.5-1.2-1.3c-0.3-2.7-0.8-5.4-1.1-8.1c-0.1-0.9-0.4-1.4-1.3-1.6c-0.4-0.1-0.9-0.3-1.3-0.5  c-2-1.4-3.7-1-5.5,0.7c-1.4,1.4-3.2,2.4-4.8,3.7c-0.7,0.6-1.2,0.6-1.9,0.1c-4.9-3.4-9-7.5-12.4-12.4c-0.5-0.7-0.4-1.2,0.1-1.9  c1.7-2.1,3.3-4.4,4.9-6.5c0.5-0.6,0.7-1.2,0.2-1.9c-0.3-0.4-0.6-0.9-0.6-1.4c-0.4-2.7-2.2-3.2-4.6-3.4c-2-0.1-4-0.5-5.9-0.9  c-0.4-0.1-1-0.7-1.1-1.1c-1.2-5.9-1.2-11.7,0-17.6c0.1-0.4,0.7-1,1.1-1c2.8-0.5,5.6-0.8,8.4-1.3c0.5-0.1,0.9-0.6,1.3-1  c0.1-0.1,0.1-0.4,0.2-0.6c2-2.8,1.2-5.2-1-7.5c-1.1-1.2-2.1-2.6-3-3.9c-0.3-0.4-0.3-1.2-0.1-1.6c3.3-5,7.5-9.1,12.4-12.5  c0.7-0.5,1.1-0.4,1.7,0.1c2.1,1.7,4.4,3.3,6.5,4.9c0.7,0.5,1.3,0.7,2,0.2c0.5-0.3,1.1-0.6,1.7-0.7c2.3-0.4,2.8-1.9,2.9-3.9  c0.1-2.1,0.6-4.2,0.8-6.3c0.1-1,0.5-1.3,1.4-1.4C47.1,3.7,53.2,3.7,59.4,5z M32.6,49.6c-0.1,9.3,7.5,16.8,16.8,16.9  c9.2,0,16.9-7.6,16.9-16.8c0-9.2-7.6-16.7-16.8-16.8C40.2,32.8,32.6,40.3,32.6,49.6z"/></svg>