# Blender v2.78 (sub 0) OBJ File: 'oblong.blend'
# www.blender.org
mtllib oblong.mtl
o Cube
v 0.439659 -1.013754 -0.136040
v 0.521283 -1.182670 0.368825
v -0.063556 -0.925949 0.286442
v -0.112702 -0.826759 -0.206014
v -0.160063 1.589116 -0.597564
v -0.534417 1.379326 -0.581487
v -0.680252 1.792028 -0.278531
v -0.273419 1.932092 -0.282200
v 0.602400 -0.317008 -0.234978
v 0.283522 0.939358 -0.468147
v 0.274198 1.026699 -0.073226
v 0.653069 -0.387172 0.218250
v 0.313058 -0.309673 0.484641
v -0.071689 1.144043 0.157355
v -0.576678 1.219769 0.117277
v -0.246703 -0.111859 0.418086
v -0.611173 -0.020556 0.077469
v -0.812038 0.996530 -0.127957
v -0.697158 0.682580 -0.482549
v -0.556287 -0.177001 -0.335431
v 0.048163 0.716120 -0.713381
v 0.237929 -0.225705 -0.575595
v -0.216275 -0.254500 -0.601822
v -0.351271 0.565236 -0.713131
v 0.529003 -1.214904 0.140428
v 0.259159 -1.171123 0.370447
v -0.092428 -0.953147 0.053506
v 0.177417 -0.996928 -0.176513
v -0.358787 1.551815 -0.614118
v -0.638750 1.664217 -0.445770
v -0.509521 1.987951 -0.293100
v -0.229558 1.875549 -0.461448
v 0.479898 0.315534 -0.365719
v 0.301443 1.042433 -0.280168
v 0.508330 0.311411 0.092312
v 0.686785 -0.415488 0.006760
v 0.140884 0.415790 0.358547
v -0.345966 1.259215 0.154416
v -0.437355 0.576097 0.298883
v 0.049495 -0.267327 0.503015
v -0.758693 0.505417 -0.014965
v -0.796533 0.864801 -0.312102
v -0.661269 0.239353 -0.424912
v -0.623429 -0.120030 -0.127775
v 0.158561 0.244854 -0.679568
v 0.013861 -0.268191 -0.624029
v -0.293823 0.134973 -0.691147
v -0.149123 0.648019 -0.746686
v 0.604496 -0.809645 -0.137795
v 0.670144 -0.931161 0.308964
v 0.320289 -0.657820 -0.396180
v -0.146583 -0.582104 -0.441372
v 0.439564 -0.213243 -0.448563
v 0.204431 0.802309 -0.618705
v 0.441101 -0.889957 0.499960
v -0.092758 -0.670431 0.429175
v 0.521683 -0.321940 0.383031
v 0.162813 1.018466 0.092630
v -0.376966 -0.518606 0.170789
v -0.375626 -0.540900 -0.250376
v -0.494078 0.016981 0.264641
v -0.739983 1.105582 0.028850
v -0.417864 -0.214236 -0.506461
v -0.540031 0.549511 -0.621992
v 0.055969 1.411530 -0.544637
v -0.002120 1.614869 -0.218139
v -0.066850 1.170178 -0.683793
v -0.420756 0.994087 -0.674376
v -0.238508 1.705878 -0.071904
v -0.659401 1.673598 -0.088079
v -0.782220 1.432246 -0.227235
v -0.657144 1.085098 -0.528141
v 0.241787 -1.186815 0.116797
v -0.457653 1.872672 -0.473439
v 0.537482 0.311350 -0.133706
v -0.151139 0.506966 0.365239
v -0.753348 0.374507 -0.222936
v -0.064728 0.178892 -0.721881
v 0.700308 -0.977701 0.108911
v 0.092593 -0.668405 -0.444962
v 0.349088 0.301017 -0.561687
v 0.203679 -0.885934 0.520499
v 0.380209 0.338596 0.270380
v -0.404035 -0.576639 -0.033375
v -0.659346 0.587481 0.168981
v -0.501684 0.144620 -0.590959
v 0.028989 1.617314 -0.400218
v -0.245189 1.114042 -0.707684
v -0.482817 1.812012 -0.081137
v -0.756995 1.308741 -0.388603
v 0.464156 -0.574041 -0.331504
v 0.560478 -0.743635 0.410678
v -0.325975 -0.403318 0.297381
v -0.319448 -0.454522 -0.405508
v 0.066953 1.143497 -0.623272
v -0.026706 1.472669 -0.065731
v -0.739717 1.426375 -0.095183
v -0.543209 0.876405 -0.613430
vn 0.0908 0.1944 0.9767
vn 0.0816 0.0465 0.9956
vn 0.4642 0.1149 0.8783
vn 0.4193 0.2454 0.8740
vn 0.1139 0.2953 0.9486
vn 0.4208 0.3533 0.8355
vn 0.4641 0.4531 0.7611
vn 0.1566 0.4162 0.8957
vn -0.1787 0.2264 0.9575
vn -0.2478 0.3428 0.9061
vn -0.6426 0.2409 0.7274
vn -0.5157 0.1366 0.8458
vn -0.2079 0.1151 0.9714
vn -0.5168 0.0000 0.8561
vn -0.5989 -0.1619 0.7843
vn -0.3192 -0.0606 0.9457
vn -0.9610 -0.2343 0.1467
vn -0.8955 -0.3798 0.2321
vn -0.7882 -0.2693 0.5534
vn -0.8333 -0.1463 0.5331
vn -0.9954 -0.0956 0.0111
vn -0.8922 -0.0052 0.4517
vn -0.9367 0.1329 0.3240
vn -0.9873 0.0476 -0.1515
vn -0.9233 -0.1348 -0.3598
vn -0.8407 0.0009 -0.5415
vn -0.6430 -0.0064 -0.7658
vn -0.7362 -0.1338 -0.6634
vn -0.9308 -0.2862 -0.2276
vn -0.7691 -0.3124 -0.5576
vn -0.7168 -0.4853 -0.5008
vn -0.8700 -0.4619 -0.1726
vn -0.0014 -0.8247 -0.5656
vn 0.1390 -0.5790 -0.8034
vn 0.5068 -0.3736 -0.7769
vn 0.6226 -0.5184 -0.5862
vn -0.0756 -0.9921 0.1002
vn 0.8386 -0.5177 0.1693
vn 0.6213 -0.1291 0.7729
vn 0.0265 -0.4323 0.9013
vn -0.6027 -0.7879 0.1267
vn -0.5433 -0.4640 0.6997
vn -0.7252 -0.3762 0.5766
vn -0.7900 -0.5748 0.2132
vn -0.4596 -0.7994 -0.3870
vn -0.7100 -0.6629 -0.2377
vn -0.5689 -0.6110 -0.5505
vn -0.2886 -0.6651 -0.6887
vn 0.0212 0.4195 -0.9075
vn 0.5971 0.4823 -0.6409
vn 0.4369 0.2720 -0.8574
vn 0.0508 0.2169 -0.9749
vn -0.4206 0.2561 -0.8704
vn -0.2900 0.1346 -0.9475
vn -0.5073 0.0635 -0.8595
vn -0.6721 0.1251 -0.7298
vn -0.6617 0.5192 -0.5409
vn -0.9068 0.2252 -0.3563
vn -0.9099 0.2945 0.2922
vn -0.5853 0.6199 0.5226
vn 0.1234 0.9078 -0.4009
vn 0.2161 0.7226 0.6566
vn 0.5782 0.5806 0.5733
vn 0.7294 0.6823 0.0492
vn 0.9564 0.1401 -0.2562
vn 0.9262 -0.0567 -0.3727
vn 0.7325 -0.1441 -0.6653
vn 0.8153 0.0284 -0.5784
vn 0.9387 0.2574 -0.2294
vn 0.8097 0.1657 -0.5629
vn 0.7095 0.2529 -0.6578
vn 0.8789 0.3612 -0.3117
vn 0.9336 0.3323 0.1336
vn 0.8798 0.4500 0.1530
vn 0.7095 0.4699 0.5252
vn 0.7700 0.3760 0.5155
vn 0.9669 0.2227 0.1245
vn 0.8021 0.2630 0.5362
vn 0.7900 0.1194 0.6013
vn 0.9882 0.0524 0.1439
vn 0.1840 -0.0231 -0.9826
vn 0.1172 0.1005 -0.9880
vn 0.4383 0.1669 -0.8832
vn 0.5061 0.0523 -0.8609
vn 0.2353 -0.1700 -0.9569
vn 0.5390 -0.0916 -0.8373
vn 0.5210 -0.2364 -0.8202
vn 0.2360 -0.3455 -0.9082
vn -0.0961 -0.2344 -0.9674
vn -0.1429 -0.4422 -0.8855
vn -0.4739 -0.4801 -0.7382
vn -0.4409 -0.2922 -0.8486
vn -0.1265 -0.0714 -0.9894
vn -0.4307 -0.1063 -0.8962
vn -0.4437 0.0134 -0.8961
vn -0.1991 0.0482 -0.9788
usemtl Material01
s off
f 13//1 37//1 76//1 40//1
f 13//2 40//2 82//2 55//2
f 13//3 55//3 92//3 57//3
f 13//4 57//4 83//4 37//4
f 14//5 38//5 76//5 37//5
f 14//6 37//6 83//6 58//6
f 14//7 58//7 96//7 69//7
f 14//8 69//8 89//8 38//8
f 15//9 39//9 76//9 38//9
f 15//10 38//10 89//10 70//10
f 15//11 70//11 97//11 62//11
f 15//12 62//12 85//12 39//12
f 16//13 40//13 76//13 39//13
f 16//14 39//14 85//14 61//14
f 16//15 61//15 93//15 56//15
f 16//16 56//16 82//16 40//16
usemtl Material03
f 17//17 41//17 77//17 44//17
f 17//18 44//18 84//18 59//18
f 17//19 59//19 93//19 61//19
f 17//20 61//20 85//20 41//20
f 18//21 42//21 77//21 41//21
f 18//22 41//22 85//22 62//22
f 18//23 62//23 97//23 71//23
f 18//24 71//24 90//24 42//24
f 19//25 43//25 77//25 42//25
f 19//26 42//26 90//26 72//26
f 19//27 72//27 98//27 64//27
f 19//28 64//28 86//28 43//28
f 20//29 44//29 77//29 43//29
f 20//30 43//30 86//30 63//30
f 20//31 63//31 94//31 60//31
f 20//32 60//32 84//32 44//32
usemtl Material05
f 1//33 25//33 73//33 28//33
f 1//34 28//34 80//34 51//34
f 1//35 51//35 91//35 49//35
f 1//36 49//36 79//36 25//36
f 2//37 26//37 73//37 25//37
f 2//38 25//38 79//38 50//38
f 2//39 50//39 92//39 55//39
f 2//40 55//40 82//40 26//40
f 3//41 27//41 73//41 26//41
f 3//42 26//42 82//42 56//42
f 3//43 56//43 93//43 59//43
f 3//44 59//44 84//44 27//44
f 4//45 28//45 73//45 27//45
f 4//46 27//46 84//46 60//46
f 4//47 60//47 94//47 52//47
f 4//48 52//48 80//48 28//48
f 5//49 29//49 74//49 32//49
f 5//50 32//50 87//50 65//50
f 5//51 65//51 95//51 67//51
f 5//52 67//52 88//52 29//52
f 6//53 30//53 74//53 29//53
f 6//54 29//54 88//54 68//54
f 6//55 68//55 98//55 72//55
f 6//56 72//56 90//56 30//56
f 7//57 31//57 74//57 30//57
f 7//58 30//58 90//58 71//58
f 7//59 71//59 97//59 70//59
f 7//60 70//60 89//60 31//60
f 8//61 32//61 74//61 31//61
f 8//62 31//62 89//62 69//62
f 8//63 69//63 96//63 66//63
f 8//64 66//64 87//64 32//64
f 9//65 33//65 75//65 36//65
f 9//66 36//66 79//66 49//66
f 9//67 49//67 91//67 53//67
f 9//68 53//68 81//68 33//68
f 10//69 34//69 75//69 33//69
f 10//70 33//70 81//70 54//70
f 10//71 54//71 95//71 65//71
f 10//72 65//72 87//72 34//72
f 11//73 35//73 75//73 34//73
f 11//74 34//74 87//74 66//74
f 11//75 66//75 96//75 58//75
f 11//76 58//76 83//76 35//76
f 12//77 36//77 75//77 35//77
f 12//78 35//78 83//78 57//78
f 12//79 57//79 92//79 50//79
f 12//80 50//80 79//80 36//80
f 21//81 45//81 78//81 48//81
f 21//82 48//82 88//82 67//82
f 21//83 67//83 95//83 54//83
f 21//84 54//84 81//84 45//84
f 22//85 46//85 78//85 45//85
f 22//86 45//86 81//86 53//86
f 22//87 53//87 91//87 51//87
f 22//88 51//88 80//88 46//88
f 23//89 47//89 78//89 46//89
f 23//90 46//90 80//90 52//90
f 23//91 52//91 94//91 63//91
f 23//92 63//92 86//92 47//92
f 24//93 48//93 78//93 47//93
f 24//94 47//94 86//94 64//94
f 24//95 64//95 98//95 68//95
f 24//96 68//96 88//96 48//96
