<svg xmlns="http://www.w3.org/2000/svg" xmlns:xlink="http://www.w3.org/1999/xlink" version="1.1" x="0px" y="0px" viewBox="0 0 100 125" enable-background="new 0 0 100 100" xml:space="preserve"><g><g><path fill="#000000" d="M77.171,79.887H61.814c-1.5,0-2.715-1.216-2.715-2.715c0-1.5,1.216-2.715,2.715-2.715h12.642V61.815    c0-1.5,1.216-2.715,2.715-2.715s2.715,1.216,2.715,2.715v15.357C79.887,78.671,78.671,79.887,77.171,79.887z"/></g><g><path fill="#000000" d="M38.254,79.887H22.897c-1.5,0-2.715-1.216-2.715-2.715V61.815c0-1.5,1.216-2.715,2.715-2.715    s2.715,1.216,2.715,2.715v12.641h12.642c1.5,0,2.715,1.216,2.715,2.715C40.969,78.671,39.754,79.887,38.254,79.887z"/></g></g><g><g><path fill="#000000" d="M22.897,40.97c-1.5,0-2.715-1.216-2.715-2.715V22.898c0-1.5,1.216-2.715,2.715-2.715h15.357    c1.5,0,2.715,1.216,2.715,2.715s-1.216,2.715-2.715,2.715H25.612v12.641C25.612,39.755,24.397,40.97,22.897,40.97z"/></g><g><path fill="#000000" d="M77.171,40.97c-1.5,0-2.715-1.216-2.715-2.715V25.613H61.814c-1.5,0-2.715-1.216-2.715-2.715    s1.216-2.715,2.715-2.715h15.357c1.5,0,2.715,1.216,2.715,2.715v15.357C79.887,39.755,78.671,40.97,77.171,40.97z"/></g></g><g><path fill="#000000" d="M92.285,95H7.715C6.216,95,5,93.785,5,92.285V7.716C5,6.216,6.216,5,7.715,5h84.569   C93.784,5,95,6.216,95,7.716v84.569C95,93.785,93.784,95,92.285,95z M10.431,89.569h79.138V10.431H10.431V89.569z"/></g></svg>